<?xml version="1.0" encoding="UTF-8" standalone="no"?>
<svg width="95px" height="86px" viewBox="0 0 95 86" version="1.1" xmlns="http://www.w3.org/2000/svg" xmlns:xlink="http://www.w3.org/1999/xlink">
    <defs>
      <g id="thing">
        <polygon id="path-1" points="47.5 43.5 95 65 47.9377545 86 0 65"></polygon>
        <mask id="mask-2" maskContentUnits="userSpaceOnUse" maskUnits="objectBoundingBox" x="0" y="0" width="95" height="42.5" fill="white">
            <use xlink:href="#path-1"></use>
        </mask>
        <polygon id="path-3" points="47.8476562 44.3113473 0 65.7600021 0 19.5795494 47.8476562 0"></polygon>
        <mask id="mask-4" maskContentUnits="userSpaceOnUse" maskUnits="objectBoundingBox" x="0" y="0" width="47.8476562" height="65.7600021" fill="white">
            <use xlink:href="#path-3"></use>
        </mask>
      </g>
        <polygon id="path-5" points="94.8476562 44.3113473 47 65.7600021 47 19.5795494 94.8476562 0"></polygon>

        <mask id="mask-6" maskContentUnits="userSpaceOnUse" maskUnits="objectBoundingBox" x="0" y="0" width="47.8476562" height="65.7600021" fill="white">
            <use xlink:href="#path-5"></use>
        </mask>

        <path d="M47.5,33 C49.15,33 50.5,34.35 50.5,36 C50.5,37.65 49.15,39 47.5,39 C45.85,39 44.5,37.65 44.5,36 C44.5,34.35 45.85,33 47.5,33 L47.5,33 Z M52,43.5 L52,63 L49,63 L49,54 L46,54 L46,63 L43,63 L43,43.5 L34,43.5 L34,40.5 L61,40.5 L61,43.5 L52,43.5 Z" id="path-7"></path>

        <filter x="-50%" y="-60%" width="200%" height="200%" filterUnits="objectBoundingBox" id="filter-8">
            <feMorphology radius="3.5" operator="dilate" in="SourceAlpha" result="shadowSpreadOuter1"></feMorphology>
            <feOffset dx="0" dy="-7" in="shadowSpreadOuter1" result="shadowOffsetOuter1"></feOffset>
            <feGaussianBlur stdDeviation="6.5" in="shadowOffsetOuter1" result="shadowBlurOuter1"></feGaussianBlur>
            <feColorMatrix values="0 0 0 0 0.231372549   0 0 0 0 0.6   0 0 0 0 0.988235294  0 0 0 1 0" type="matrix" in="shadowBlurOuter1"></feColorMatrix>
        </filter>

    </defs>

    <g id="Page-1" stroke="none" stroke-width="1" fill="none" fill-rule="evenodd">
        <g id="Group">
            <use id="Path-3" stroke="#3B99FC" mask="url(#mask-2)" stroke-width="2" fill-opacity="0.600000024" fill="#3B99FC" xlink:href="#path-1"></use>
            <use id="Rectangle-2" stroke="#3B99FC" mask="url(#mask-4)" stroke-width="2" stroke-linecap="round" stroke-linejoin="round" fill-opacity="0.300000012" fill="#3B99FC" xlink:href="#path-3"></use>
            <use id="Rectangle-2" stroke="#3B99FC" mask="url(#mask-6)" stroke-width="2" stroke-linecap="round" stroke-linejoin="round" fill-opacity="0.300000012" fill="#3B99FC" transform="translate(70.923828, 32.880001) scale(-1, 1) translate(-70.923828, -32.880001) " xlink:href="#path-5"></use>
            <g id="Shape">
                <use fill="black" fill-opacity="1" filter="url(#filter-8)" xlink:href="#path-7"></use>
                <use fill="#FFFFFF" fill-rule="evenodd" xlink:href="#path-7"></use>
            </g>
        </g>
    </g>

</svg>
