<?xml version="1.0" encoding="UTF-8" standalone="no"?>
<svg width="116px" height="19px" viewBox="0 0 116 19" version="1.1" xmlns="http://www.w3.org/2000/svg" xmlns:xlink="http://www.w3.org/1999/xlink">
    <!-- Generator: Sketch 39.1 (31720) - http://www.bohemiancoding.com/sketch -->
    <title>LegibilityApp</title>
    <desc>Created with Sketch.</desc>
    <defs></defs>
    <g id="Page-1" stroke="none" stroke-width="1" fill="none" fill-rule="evenodd">
        <path d="M8.765625,12.6074219 L3.20898438,12.6074219 L3.20898438,1.66992188 L0.376953125,1.66992188 L0.376953125,15 L8.765625,15 L8.765625,12.6074219 Z M14.5761719,15.1855469 C17.671875,15.1855469 18.8632812,13.2519531 18.9902344,11.8066406 L16.421875,11.8066406 C16.3242188,12.5097656 15.6992188,13.0957031 14.5664062,13.0957031 C13.21875,13.0957031 12.4667969,12.0507812 12.4667969,10.7324219 L12.4667969,10.3808594 L19.078125,10.3808594 L19.078125,9.40429688 C19.078125,6.39648438 17.3789062,4.42382812 14.4394531,4.42382812 C11.6367188,4.42382812 9.77148438,6.26953125 9.77148438,9.4140625 L9.77148438,10.2246094 C9.77148438,13.3691406 11.5683594,15.1855469 14.5761719,15.1855469 L14.5761719,15.1855469 Z M12.4667969,8.70117188 L12.4667969,8.68164062 C12.4667969,7.39257812 13.2382812,6.45507812 14.4589844,6.45507812 C15.6894531,6.45507812 16.4316406,7.3828125 16.4316406,8.68164062 L16.4316406,8.70117188 L12.4667969,8.70117188 Z M25.328125,16.8457031 C24.1855469,16.8457031 23.53125,16.3574219 23.4042969,15.6738281 L20.7578125,15.6738281 C20.8066406,17.3046875 22.1445312,18.8476562 25.25,18.8476562 C27.7890625,18.8476562 30.2207031,17.8417969 30.2207031,14.8632812 L30.2207031,4.609375 L27.515625,4.609375 L27.515625,6.14257812 L27.3984375,6.14257812 C27.0175781,5.234375 26.0800781,4.48242188 24.4589844,4.48242188 C22.1347656,4.48242188 20.5429688,6.23046875 20.5429688,9.22851562 L20.5429688,10.1367188 C20.5429688,13.1542969 22.1640625,14.8535156 24.4394531,14.8535156 C25.9140625,14.8535156 26.9882812,14.140625 27.3691406,13.2226562 L27.4863281,13.2226562 L27.4863281,14.6875 C27.4863281,16.0644531 26.7832031,16.8457031 25.328125,16.8457031 L25.328125,16.8457031 Z M25.4648438,6.65039062 C26.7050781,6.65039062 27.4765625,7.74414062 27.4765625,9.375 L27.4765625,10.2148438 C27.4765625,11.7480469 26.734375,12.8222656 25.4746094,12.8222656 C24.234375,12.8222656 23.3554688,11.8847656 23.3554688,10.15625 L23.3554688,9.375 C23.3554688,7.65625 24.1855469,6.65039062 25.4648438,6.65039062 L25.4648438,6.65039062 Z M32.7695312,15 L35.5136719,15 L35.5136719,4.609375 L32.7695312,4.609375 L32.7695312,15 Z M32.5546875,1.9921875 C32.5546875,2.78320312 33.1699219,3.34960938 34.1269531,3.34960938 C35.1132812,3.34960938 35.71875,2.78320312 35.71875,1.9921875 C35.71875,1.2109375 35.1035156,0.64453125 34.1269531,0.64453125 C33.1699219,0.64453125 32.5546875,1.2109375 32.5546875,1.9921875 L32.5546875,1.9921875 Z M43.9902344,15.1269531 C46.421875,15.1269531 47.90625,13.4082031 47.90625,10.2929688 L47.90625,9.296875 C47.90625,6.26953125 46.4804688,4.48242188 44.0195312,4.48242188 C42.359375,4.48242188 41.4511719,5.24414062 41.0507812,6.14257812 L40.9335938,6.14257812 L40.9335938,0.966796875 L38.1796875,0.966796875 L38.1796875,15 L40.8945312,15 L40.8945312,13.3886719 L41.0117188,13.3886719 C41.3828125,14.3847656 42.4375,15.1269531 43.9902344,15.1269531 L43.9902344,15.1269531 Z M43.0234375,12.9589844 C41.65625,12.9589844 40.9335938,11.7871094 40.9335938,10.2636719 L40.9335938,9.375 C40.9335938,7.71484375 41.7636719,6.65039062 43.0234375,6.65039062 C44.2832031,6.65039062 45.0742188,7.6171875 45.0742188,9.44335938 L45.0742188,10.2050781 C45.0742188,12.0214844 44.2441406,12.9589844 43.0234375,12.9589844 L43.0234375,12.9589844 Z M50.1035156,15 L52.8476562,15 L52.8476562,4.609375 L50.1035156,4.609375 L50.1035156,15 Z M49.8886719,1.9921875 C49.8886719,2.78320312 50.5039062,3.34960938 51.4609375,3.34960938 C52.4472656,3.34960938 53.0527344,2.78320312 53.0527344,1.9921875 C53.0527344,1.2109375 52.4375,0.64453125 51.4609375,0.64453125 C50.5039062,0.64453125 49.8886719,1.2109375 49.8886719,1.9921875 L49.8886719,1.9921875 Z M55.5625,15 L58.3164062,15 L58.3164062,0.966796875 L55.5625,0.966796875 L55.5625,15 Z M61.0410156,15 L63.7851562,15 L63.7851562,4.609375 L61.0410156,4.609375 L61.0410156,15 Z M60.8261719,1.9921875 C60.8261719,2.78320312 61.4414062,3.34960938 62.3984375,3.34960938 C63.3847656,3.34960938 63.9902344,2.78320312 63.9902344,1.9921875 C63.9902344,1.2109375 63.375,0.64453125 62.3984375,0.64453125 C61.4414062,0.64453125 60.8261719,1.2109375 60.8261719,1.9921875 L60.8261719,1.9921875 Z M67.1835938,4.73632812 L65.640625,4.73632812 L65.640625,6.8359375 L67.125,6.8359375 L67.125,12.0507812 C67.125,14.1894531 68.0429688,15.0488281 70.6503906,15.0488281 C71.2070312,15.0488281 71.6757812,15 71.890625,14.9609375 L71.890625,12.9394531 C71.7734375,12.9589844 71.5488281,12.9589844 71.3242188,12.9589844 C70.2890625,12.9589844 69.8496094,12.6464844 69.8496094,11.6503906 L69.8496094,6.8359375 L71.8515625,6.8359375 L71.8515625,4.73632812 L69.8496094,4.73632812 L69.8496094,2.15820312 L67.1835938,2.15820312 L67.1835938,4.73632812 Z M83.0625,4.609375 L80.1425781,4.609375 L78.0039062,12.6757812 L77.8867188,12.6757812 L75.796875,4.609375 L72.7695312,4.609375 L76.3144531,15 L76.2265625,15.3320312 C76.0800781,16.1816406 75.6503906,16.6796875 74.3613281,16.6796875 C74.0683594,16.6796875 73.6777344,16.6503906 73.5019531,16.6113281 L73.5019531,18.5644531 C73.7753906,18.6230469 74.390625,18.6816406 74.9863281,18.6816406 C77.7109375,18.6816406 78.7265625,17.2558594 79.4492188,15.3515625 L79.7128906,14.6386719 C79.7519531,14.5214844 83.0625,4.609375 83.0625,4.609375 L83.0625,4.609375 Z M84.9277344,15 L86.3925781,10.7421875 L91.6367188,10.7421875 L93.0917969,15 L94.4296875,15 L89.6542969,1.68945312 L88.4238281,1.68945312 L83.6386719,15 L84.9277344,15 Z M89.0292969,3.22265625 L91.2753906,9.71679688 L86.7441406,9.71679688 L88.9902344,3.22265625 L89.0292969,3.22265625 Z M100.71875,15.1660156 C102.984375,15.1660156 104.673828,13.59375 104.673828,10.7226562 L104.673828,9.1015625 C104.673828,6.31835938 103.042969,4.6484375 100.767578,4.6484375 C98.8730469,4.6484375 97.8769531,5.64453125 97.5546875,6.43554688 L97.515625,6.43554688 L97.515625,4.8046875 L96.34375,4.8046875 L96.34375,18.4570312 L97.5644531,18.4570312 L97.5644531,13.4277344 L97.6035156,13.4277344 C97.9941406,14.21875 98.8925781,15.1660156 100.71875,15.1660156 L100.71875,15.1660156 Z M100.572266,14.0625 C98.6777344,14.0625 97.5644531,12.4707031 97.5644531,10.5859375 L97.5644531,9.15039062 C97.5644531,7.25585938 98.6484375,5.73242188 100.533203,5.73242188 C102.271484,5.73242188 103.443359,7.00195312 103.443359,9.27734375 L103.443359,10.5078125 C103.443359,12.9101562 102.164062,14.0625 100.572266,14.0625 L100.572266,14.0625 Z M111.724609,15.1660156 C113.990234,15.1660156 115.679688,13.59375 115.679688,10.7226562 L115.679688,9.1015625 C115.679688,6.31835938 114.048828,4.6484375 111.773438,4.6484375 C109.878906,4.6484375 108.882812,5.64453125 108.560547,6.43554688 L108.521484,6.43554688 L108.521484,4.8046875 L107.349609,4.8046875 L107.349609,18.4570312 L108.570312,18.4570312 L108.570312,13.4277344 L108.609375,13.4277344 C109,14.21875 109.898438,15.1660156 111.724609,15.1660156 L111.724609,15.1660156 Z M111.578125,14.0625 C109.683594,14.0625 108.570312,12.4707031 108.570312,10.5859375 L108.570312,9.15039062 C108.570312,7.25585938 109.654297,5.73242188 111.539062,5.73242188 C113.277344,5.73242188 114.449219,7.00195312 114.449219,9.27734375 L114.449219,10.5078125 C114.449219,12.9101562 113.169922,14.0625 111.578125,14.0625 L111.578125,14.0625 Z" id="LegibilityApp" fill="#FFFFFF"></path>
    </g>
</svg>