<svg width="13" height="13" viewBox="0 0 16 16" version="1.1" xmlns="http://www.w3.org/2000/svg" xmlns:xlink="http://www.w3.org/1999/xlink"><g stroke="none" stroke-width="1" fill="#fff" fill-rule="evenodd"><path d="M8,2 C11.31,2 14,4.69 14,8 C14,9.01 13.75,9.97 13.3,10.8 L14.76,12.26 C15.54,11.03 16,9.57 16,8 C16,3.58 12.42,-8.8817842e-16 8,-8.8817842e-16 L8,2 Z M2,8 C2,6.99 2.25,6.03 2.7,5.2 L1.24,3.74 C0.46,4.97 0,6.43 0,8 C0,12.42 3.58,16 8,16 L8,14 C4.69,14 2,11.31 2,8 Z" transform="translate(8,8) scale(-1,1) translate(-8,-8)"></path></g></svg>
